HIERARCHY
ROOT Hips
{
	OFFSET 0.000000 0.000000 0.000000
	CHANNELS 6 Xposition Yposition Zposition Xrotation Yrotation Zrotation
	JOINT LeftUpLeg_virtual
	{
		OFFSET 0.000000 0.000000 0.000000
		CHANNELS 3 Xrotation Yrotation Zrotation
		JOINT LeftUpLeg
		{
			OFFSET 11.394100 -6.187798 -0.413800
			CHANNELS 3 Xrotation Yrotation Zrotation
			JOINT LeftLeg
			{
				OFFSET 0.430247 -32.302673 3.732800
				CHANNELS 3 Xrotation Yrotation Zrotation
				JOINT LeftFoot
				{
					OFFSET -0.430247 -48.264931 -6.423300
					CHANNELS 3 Xrotation Yrotation Zrotation
					JOINT LeftToeBase
					{
						OFFSET 4.230900 -16.068199 23.438400
						CHANNELS 3 Xrotation Yrotation Zrotation
						JOINT LeftToe_End
						{
							OFFSET 4.510700 0.695400 19.974600
							CHANNELS 3 Xrotation Yrotation Zrotation
							End Site
							{
								OFFSET 0 0 0
							}
						}
					}
				}
			}
		}
	}
	JOINT RightUpLeg_virtual
	{
		OFFSET 0.000000 0.000000 0.000000
		CHANNELS 3 Xrotation Yrotation Zrotation
		JOINT RightUpLeg
		{
			OFFSET -11.333700 -6.187798 -0.413800
			CHANNELS 3 Xrotation Yrotation Zrotation
			JOINT RightLeg
			{
				OFFSET -0.430392 -32.302628 3.733000
				CHANNELS 3 Xrotation Yrotation Zrotation
				JOINT RightFoot
				{
					OFFSET 0.430392 -48.264973 -6.423500
					CHANNELS 3 Xrotation Yrotation Zrotation
					JOINT RightToeBase
					{
						OFFSET -4.230900 -16.068199 23.438400
						CHANNELS 3 Xrotation Yrotation Zrotation
						JOINT RightToe_End
						{
							OFFSET -4.510700 0.695400 19.974600
							CHANNELS 3 Xrotation Yrotation Zrotation
							End Site
							{
								OFFSET 0 0 0
							}
						}
					}
				}
			}
		}
	}
	JOINT Spine_virtual
	{
		OFFSET 0.000000 0.000000 0.000000
		CHANNELS 3 Xrotation Yrotation Zrotation
		JOINT Spine
		{
			OFFSET -0.002400 12.777504 0.315300
			CHANNELS 3 Xrotation Yrotation Zrotation
			JOINT Spine1
			{
				OFFSET -0.002067 5.816869 0.032633
				CHANNELS 3 Xrotation Yrotation Zrotation
				JOINT Spine1_split
				{
					OFFSET -0.002067 5.816869 0.032633
					CHANNELS 3 Xrotation Yrotation Zrotation
					JOINT Spine2
					{
						OFFSET -0.002067 5.816869 0.032633
						CHANNELS 3 Xrotation Yrotation Zrotation
						JOINT Neck_virtual
						{
							OFFSET 0.000000 0.000000 0.000000
							CHANNELS 3 Xrotation Yrotation Zrotation
							JOINT Neck
							{
								OFFSET -0.003700 21.199493 -0.826900
								CHANNELS 3 Xrotation Yrotation Zrotation
								JOINT Head
								{
									OFFSET 0.000000 20.442200 4.834800
									CHANNELS 3 Xrotation Yrotation Zrotation
									JOINT HeadTop_End
									{
										OFFSET 0.000000 34.668396 4.968400
										CHANNELS 3 Xrotation Yrotation Zrotation
										End Site
										{
											OFFSET 0 0 0
										}
									}
								}
							}
						}
						JOINT LeftShoulder_virtual
						{
							OFFSET 0.000000 0.000000 0.000000
							CHANNELS 3 Xrotation Yrotation Zrotation
							JOINT LeftShoulder
							{
								OFFSET 3.288150 8.794197 -1.372250
								CHANNELS 3 Xrotation Yrotation Zrotation
								JOINT LeftShoulder_split
								{
									OFFSET 3.288150 8.794197 -1.372250
									CHANNELS 3 Xrotation Yrotation Zrotation
									JOINT LeftArm
									{
										OFFSET 11.953299 -2.279007 -0.146200
										CHANNELS 3 Xrotation Yrotation Zrotation
										JOINT LeftForeArm
										{
											OFFSET 18.448900 0.000000 0.000000
											CHANNELS 3 Xrotation Yrotation Zrotation
											JOINT LeftHand
											{
												OFFSET 29.527798 0.000000 0.000000
												CHANNELS 3 Xrotation Yrotation Zrotation
												End Site
												{
													OFFSET 0 0 0
												}
											}
										}
									}
								}
							}
						}
						JOINT RightShoulder_virtual
						{
							OFFSET 0.000000 0.000000 0.000000
							CHANNELS 3 Xrotation Yrotation Zrotation
							JOINT RightShoulder
							{
								OFFSET -3.249400 8.794197 -1.372250
								CHANNELS 3 Xrotation Yrotation Zrotation
								JOINT RightShoulder_split
								{
									OFFSET -3.249400 8.794197 -1.372250
									CHANNELS 3 Xrotation Yrotation Zrotation
									JOINT RightArm
									{
										OFFSET -11.953299 -2.279007 -0.146200
										CHANNELS 3 Xrotation Yrotation Zrotation
										JOINT RightForeArm
										{
											OFFSET -18.448900 0.000000 0.000000
											CHANNELS 3 Xrotation Yrotation Zrotation
											JOINT RightHand
											{
												OFFSET -29.527802 0.000000 0.000000
												CHANNELS 3 Xrotation Yrotation Zrotation
												End Site
												{
													OFFSET 0 0 0
												}
											}
										}
									}
								}
							}
						}
					}
				}
			}
		}
	}
}
MOTION
Frames: 8
Frame Time: 0.03333333
1.388155 91.452957 0.573437 0.000000 0.000000 0.000000 7.471040 -67.330611 8.961766 -36.584891 11.476578 22.113711 34.847430 -5.132475 0.465418 -4.078971 -3.791863 -13.561865 1.474687 0.288936 1.179517 0.000000 0.000000 0.000000 4.911039 -66.170845 7.263304 -26.802977 -11.371875 -26.253560 23.649737 -4.728451 -4.692410 2.954778 -1.180904 19.136093 -4.845216 -0.139223 -0.509489 0.000000 0.000000 0.000000 2.051914 -64.359411 4.632362 16.446909 0.522074 -3.772203 4.490409 0.867225 -2.648634 0.471416 2.586983 0.498939 0.000000 0.000000 0.000000 4.032733 0.571236 -2.622200 -4.976860 2.956161 2.876260 -14.964441 52.519497 -3.741283 0.000000 0.000000 0.000000 4.680309 0.211865 -2.709149 2.635405 -3.291836 -11.262542 -3.158780 -5.883732 1.675356 -37.802621 28.544218 -33.177193 3.164192 -43.032015 4.460073 0.000000 0.000000 0.000000 5.287637 0.691981 -2.403449 1.854200 5.845523 9.304095 4.400816 4.772846 0.601370 4.826746 -9.539817 55.199625 -20.481977 35.224303 13.494922 0.000000 0.000000 0.000000 
0.910492 91.988434 2.459816 0.000000 0.000000 0.000000 6.779554 -67.866508 8.323974 -36.767564 12.232479 22.212832 35.218487 -4.950399 0.649290 -3.805992 -3.379691 -13.782194 1.034218 0.184710 1.608953 0.000000 0.000000 0.000000 6.094446 -67.283053 7.934352 -26.307358 -10.707799 -26.075277 24.450242 -5.060797 -4.598464 4.208207 -1.572316 18.588443 -4.696855 -0.544041 0.329978 0.000000 0.000000 0.000000 3.000684 -64.864736 5.123201 16.298139 0.348036 -3.704078 4.433323 0.723268 -2.577011 0.299647 2.578306 0.461840 0.000000 0.000000 0.000000 3.743796 0.486337 -2.577231 -5.204435 3.098423 2.447428 -14.124768 52.420117 -4.360341 0.000000 0.000000 0.000000 4.582516 0.067852 -2.672364 2.679495 -3.760855 -10.919320 -3.449441 -5.790787 1.899943 -38.700671 28.662735 -32.605865 3.074226 -44.053293 4.584115 0.000000 0.000000 0.000000 5.223961 0.651452 -2.360528 1.831496 6.395286 9.671213 3.813516 4.015030 0.242130 3.649945 -9.694572 54.672492 -19.986795 33.775289 12.983411 0.000000 0.000000 0.000000 
0.337618 92.494286 4.843849 0.000000 0.000000 0.000000 6.473608 -68.629468 7.956126 -36.594682 13.122214 22.125488 35.917414 -4.513353 0.686026 -4.384936 -2.558463 -13.138101 0.213035 0.083077 2.094670 0.000000 0.000000 0.000000 7.512172 -68.424050 8.800107 -26.341268 -9.070326 -25.844703 26.641226 -5.464105 -4.210937 4.675166 -2.657158 18.063854 -4.829351 -0.785614 1.010602 0.000000 0.000000 0.000000 4.446419 -65.446695 6.005934 16.033809 0.155762 -3.573889 4.164399 0.338300 -2.421459 0.266391 2.508409 0.336498 0.000000 0.000000 0.000000 3.262100 0.111246 -2.397631 -5.234928 3.698129 1.932288 -13.256151 52.393736 -5.084965 0.000000 0.000000 0.000000 4.252785 -0.341378 -2.519569 2.714140 -4.236971 -10.700466 -3.631603 -5.327276 1.947630 -40.204136 28.492848 -31.636835 4.355246 -43.899002 5.693685 0.000000 0.000000 0.000000 4.875201 0.322354 -2.205931 1.883773 7.020374 10.061177 3.283330 3.363025 -0.003344 1.465458 -9.745720 53.843109 -18.917223 30.789229 11.869293 0.000000 0.000000 0.000000 
-0.251396 92.624771 7.318035 0.000000 0.000000 0.000000 6.747230 -69.362217 8.029693 -36.446822 13.910648 21.923249 37.197033 -3.975987 0.600440 -5.834735 -1.564180 -11.742736 -0.457240 0.003351 2.408195 0.000000 0.000000 0.000000 9.223349 -69.248228 9.969859 -27.212712 -6.814612 -25.460963 29.344897 -5.720056 -3.602887 4.005536 -3.992284 17.738906 -4.790811 -0.732140 1.166527 0.000000 0.000000 0.000000 6.090940 -65.869211 7.089447 15.744773 -0.074527 -3.404755 3.748829 -0.241386 -2.196448 0.330799 2.305238 0.289219 0.000000 0.000000 0.000000 2.700490 -0.495787 -2.115304 -5.058323 4.649635 1.397022 -12.610608 52.337260 -5.670178 0.000000 0.000000 0.000000 3.762856 -0.955127 -2.271263 2.742198 -4.693906 -10.639398 -3.842781 -4.617583 1.925567 -41.893225 27.928807 -30.621637 6.610946 -42.535877 7.477190 0.000000 0.000000 0.000000 4.343036 -0.257705 -1.976011 2.030134 7.567276 10.450238 2.937249 2.979900 -0.143066 -1.139415 -9.409264 53.079855 -17.657987 27.451135 10.592628 0.000000 0.000000 0.000000 
-0.735756 92.238930 9.412086 0.000000 0.000000 0.000000 7.770113 -69.768716 8.731501 -36.951200 14.372328 21.719803 39.227009 -3.597697 0.471163 -7.893951 -0.738296 -10.027128 -0.678148 -0.043987 2.484274 0.000000 0.000000 0.000000 11.109869 -69.447827 11.325377 -29.078632 -4.489342 -24.814605 32.156537 -5.758083 -2.846620 1.937325 -5.230625 17.597053 -4.013281 -0.351855 0.689224 0.000000 0.000000 0.000000 8.097152 -66.122986 8.459349 15.440785 -0.347663 -3.197761 3.287767 -0.925689 -1.942807 0.410853 1.823922 0.325700 0.000000 0.000000 0.000000 2.170441 -1.229901 -1.795357 -4.790075 5.803589 0.850566 -12.535340 52.057649 -5.819815 0.000000 0.000000 0.000000 3.230103 -1.664345 -1.980935 2.758845 -5.099129 -10.621162 -4.024495 -3.943725 1.813926 -43.472194 26.735630 -29.801440 9.281325 -40.469759 9.530130 0.000000 0.000000 0.000000 3.751099 -0.990324 -1.721706 2.256346 7.891175 10.804683 2.681087 2.790827 -0.260013 -3.485789 -8.653062 52.675857 -16.443317 24.789157 9.411566 0.000000 0.000000 0.000000 
-1.137336 91.088181 11.170212 0.000000 0.000000 0.000000 9.669288 -69.727359 10.189173 -38.472308 14.301770 21.614648 42.231726 -3.683855 0.437087 -10.165433 -0.330285 -8.543509 -0.649446 -0.072944 2.521677 0.000000 0.000000 0.000000 12.917829 -69.097677 12.712644 -31.957420 -2.608738 -23.943964 34.988119 -5.523035 -1.988465 -1.522114 -6.207157 17.601418 -2.180035 0.205331 -0.229696 0.000000 0.000000 0.000000 10.201869 -65.935361 9.927398 15.049388 -0.635460 -2.998990 2.879167 -1.603442 -1.721397 0.448825 1.264124 0.369958 0.000000 0.000000 0.000000 1.787966 -1.957427 -1.510833 -4.584292 7.019958 0.277489 -13.319888 51.426099 -5.299996 0.000000 0.000000 0.000000 2.784732 -2.339018 -1.712003 2.780577 -5.462738 -10.545225 -4.047538 -3.342809 1.548500 -44.826193 24.899192 -29.186921 11.904639 -38.227483 11.535379 0.000000 0.000000 0.000000 3.211433 -1.742103 -1.514262 2.544732 7.876973 11.069199 2.584848 2.657672 -0.285089 -5.086408 -7.575173 52.805292 -15.365566 23.336617 8.403315 0.000000 0.000000 0.000000 
-1.584085 89.287926 12.449242 0.000000 0.000000 0.000000 12.203093 -69.072576 12.267730 -40.934328 13.672339 21.540000 46.060689 -4.185892 0.583091 -12.403424 -0.255077 -7.592412 -0.702065 -0.109575 2.639548 0.000000 0.000000 0.000000 14.737397 -68.295198 14.241682 -35.829940 -1.596785 -23.122613 38.417137 -5.021117 -1.059940 -5.839003 -6.839298 17.560917 0.095223 0.764095 -1.311083 0.000000 0.000000 0.000000 12.538842 -65.230827 11.589229 14.568986 -0.891408 -2.816700 2.588434 -2.176327 -1.600851 0.453889 0.806813 0.473384 0.000000 0.000000 0.000000 1.601692 -2.560593 -1.328671 -4.594892 8.188714 -0.313317 -14.978883 50.416611 -4.089066 0.000000 0.000000 0.000000 2.480004 -2.871814 -1.550500 2.830719 -5.825214 -10.350633 -4.068118 -2.927759 1.322925 -46.079861 22.557301 -28.669921 14.111525 -35.988755 13.250274 0.000000 0.000000 0.000000 2.819170 -2.375345 -1.417898 2.894140 7.592948 11.281175 2.577556 2.512892 -0.267780 -5.983933 -6.517049 53.372348 -14.495782 23.153037 7.594407 0.000000 0.000000 0.000000 
-2.015642 87.057014 13.060390 0.000000 0.000000 0.000000 15.112343 -67.838484 14.705916 -44.278966 12.512368 21.483236 50.441777 -4.889167 0.900666 -14.476632 -0.195546 -7.215605 -0.905357 -0.144786 2.789098 0.000000 0.000000 0.000000 16.702606 -67.264967 16.007551 -40.539201 -1.539077 -22.660922 42.929272 -4.342962 -0.117302 -10.265386 -7.158581 17.280471 1.969460 1.153098 -2.145012 0.000000 0.000000 0.000000 15.372738 -64.203553 13.724702 13.963780 -1.075796 -2.626497 2.477261 -2.577077 -1.621959 0.461630 0.411534 0.582580 0.000000 0.000000 0.000000 1.606676 -2.974591 -1.296635 -4.889437 9.250613 -0.950861 -17.378580 48.970817 -2.354173 0.000000 0.000000 0.000000 2.325697 -3.221620 -1.543186 2.917125 -6.202769 -9.912800 -4.101158 -2.823236 1.123588 -47.348077 19.825235 -28.085859 15.823788 -33.930908 14.603088 0.000000 0.000000 0.000000 2.607762 -2.808616 -1.449733 3.275252 7.193682 11.461195 2.597237 2.464442 -0.295808 -6.500937 -5.848838 54.208380 -13.910842 23.989694 6.984821 0.000000 0.000000 0.000000 
